<mxfile host="app.diagrams.net" modified="2021-04-07T01:00:14.462Z" agent="5.0 (Windows NT 6.1; Win64; x64) AppleWebKit/537.36 (KHTML, like Gecko) Chrome/89.0.4389.114 Safari/537.36" etag="6S_oGT9sil5ryZ8h8ccQ" version="14.5.4" type="github">
  <diagram id="jWWKq6yXMQLdVD_n3nh2" name="Page-1">
    <mxGraphModel dx="805" dy="-5" grid="0" gridSize="10" guides="1" tooltips="1" connect="1" arrows="1" fold="1" page="0" pageScale="1" pageWidth="850" pageHeight="1100" math="0" shadow="0">
      <root>
        <mxCell id="0" />
        <mxCell id="1" parent="0" />
        <mxCell id="_VsH6jPjc1Dl-bb9zUJQ-163" value="" style="rounded=0;whiteSpace=wrap;html=1;strokeColor=#000000;strokeWidth=2;fontFamily=Times New Roman;fontSize=12;fontColor=#000000;fillColor=none;dashed=1;labelBackgroundColor=none;" vertex="1" parent="1">
          <mxGeometry x="540" y="620" width="310" height="120" as="geometry" />
        </mxCell>
        <mxCell id="_VsH6jPjc1Dl-bb9zUJQ-24" value="" style="shape=parallelogram;perimeter=parallelogramPerimeter;whiteSpace=wrap;html=1;fixedSize=1;strokeColor=#1BA1E2;size=10;labelBackgroundColor=none;" vertex="1" parent="1">
          <mxGeometry x="300" y="570" height="20" as="geometry" />
        </mxCell>
        <mxCell id="_VsH6jPjc1Dl-bb9zUJQ-72" value="Encrypted video bitstream" style="text;html=1;strokeColor=none;fillColor=none;align=center;verticalAlign=middle;whiteSpace=wrap;rounded=0;fontSize=12;fontFamily=Times New Roman;" vertex="1" parent="1">
          <mxGeometry x="74.03" y="785" width="85.97" height="20" as="geometry" />
        </mxCell>
        <mxCell id="_VsH6jPjc1Dl-bb9zUJQ-86" value="" style="group;labelBackgroundColor=none;" vertex="1" connectable="0" parent="1">
          <mxGeometry x="56.96" y="640.91" width="126.11000000000001" height="58.39999999999998" as="geometry" />
        </mxCell>
        <mxCell id="_VsH6jPjc1Dl-bb9zUJQ-61" value="" style="verticalLabelPosition=bottom;verticalAlign=top;html=1;shape=mxgraph.basic.wave2;dy=0.39;strokeWidth=1;strokeColor=#5C5C5C;fillColor=#F0F0F0;fontColor=#CC6600;labelBackgroundColor=none;" vertex="1" parent="_VsH6jPjc1Dl-bb9zUJQ-86">
          <mxGeometry x="3" y="22.269999999999982" width="120" height="36.13" as="geometry" />
        </mxCell>
        <mxCell id="_VsH6jPjc1Dl-bb9zUJQ-62" value="1" style="text;html=1;strokeColor=none;fillColor=none;align=center;verticalAlign=middle;whiteSpace=wrap;rounded=0;fontColor=#737373;labelBackgroundColor=none;" vertex="1" parent="_VsH6jPjc1Dl-bb9zUJQ-86">
          <mxGeometry x="18.000000000000007" y="23.653380281690147" width="15.860000000000001" height="18.450704225352112" as="geometry" />
        </mxCell>
        <mxCell id="_VsH6jPjc1Dl-bb9zUJQ-63" value="0" style="text;html=1;strokeColor=none;fillColor=none;align=center;verticalAlign=middle;whiteSpace=wrap;rounded=0;fontColor=#737373;labelBackgroundColor=none;" vertex="1" parent="_VsH6jPjc1Dl-bb9zUJQ-86">
          <mxGeometry x="26.06000000000001" y="26.501126760563352" width="15.860000000000001" height="18.450704225352112" as="geometry" />
        </mxCell>
        <mxCell id="_VsH6jPjc1Dl-bb9zUJQ-64" value="0" style="text;html=1;strokeColor=none;fillColor=none;align=center;verticalAlign=middle;whiteSpace=wrap;rounded=0;fontColor=#737373;labelBackgroundColor=none;" vertex="1" parent="_VsH6jPjc1Dl-bb9zUJQ-86">
          <mxGeometry x="34.86000000000002" y="31.10887323943666" width="15.860000000000001" height="18.450704225352112" as="geometry" />
        </mxCell>
        <mxCell id="_VsH6jPjc1Dl-bb9zUJQ-65" value="1" style="text;html=1;strokeColor=none;fillColor=none;align=center;verticalAlign=middle;whiteSpace=wrap;rounded=0;fontColor=#737373;labelBackgroundColor=none;" vertex="1" parent="_VsH6jPjc1Dl-bb9zUJQ-86">
          <mxGeometry x="49.720000000000034" y="37.089014084507085" width="15.860000000000001" height="18.450704225352112" as="geometry" />
        </mxCell>
        <mxCell id="_VsH6jPjc1Dl-bb9zUJQ-66" value="1" style="text;html=1;strokeColor=none;fillColor=none;align=center;verticalAlign=middle;whiteSpace=wrap;rounded=0;fontColor=#737373;labelBackgroundColor=none;" vertex="1" parent="_VsH6jPjc1Dl-bb9zUJQ-86">
          <mxGeometry x="42.720000000000034" y="35.03140845070425" width="15.860000000000001" height="18.450704225352112" as="geometry" />
        </mxCell>
        <mxCell id="_VsH6jPjc1Dl-bb9zUJQ-67" value="0" style="text;html=1;strokeColor=none;fillColor=none;align=center;verticalAlign=middle;whiteSpace=wrap;rounded=0;fontColor=#737373;labelBackgroundColor=none;" vertex="1" parent="_VsH6jPjc1Dl-bb9zUJQ-86">
          <mxGeometry x="57.58000000000005" y="37.033661971831066" width="15.860000000000001" height="18.450704225352112" as="geometry" />
        </mxCell>
        <mxCell id="_VsH6jPjc1Dl-bb9zUJQ-68" value="..." style="text;html=1;strokeColor=none;fillColor=none;align=center;verticalAlign=middle;whiteSpace=wrap;rounded=0;rotation=0;fontColor=#737373;labelBackgroundColor=none;" vertex="1" parent="_VsH6jPjc1Dl-bb9zUJQ-86">
          <mxGeometry x="106.11000000000001" y="22.65816901408448" width="20.000000000000004" height="18.450704225352112" as="geometry" />
        </mxCell>
        <mxCell id="_VsH6jPjc1Dl-bb9zUJQ-69" value="..." style="text;html=1;strokeColor=none;fillColor=none;align=center;verticalAlign=middle;whiteSpace=wrap;rounded=0;rotation=0;fontColor=#737373;labelBackgroundColor=none;" vertex="1" parent="_VsH6jPjc1Dl-bb9zUJQ-86">
          <mxGeometry y="22.65816901408448" width="20.000000000000004" height="18.450704225352112" as="geometry" />
        </mxCell>
        <mxCell id="_VsH6jPjc1Dl-bb9zUJQ-70" value="0" style="text;html=1;strokeColor=none;fillColor=none;align=center;verticalAlign=middle;whiteSpace=wrap;rounded=0;fontColor=#737373;labelBackgroundColor=none;" vertex="1" parent="_VsH6jPjc1Dl-bb9zUJQ-86">
          <mxGeometry x="66.58000000000004" y="34.10845070422545" width="15.860000000000001" height="18.450704225352112" as="geometry" />
        </mxCell>
        <mxCell id="_VsH6jPjc1Dl-bb9zUJQ-71" value="" style="shape=image;verticalLabelPosition=bottom;labelBackgroundColor=none;verticalAlign=top;aspect=fixed;imageAspect=0;image=data:image/png,iVBORw0KGgoAAAANSUhEUgAAAMgAAADICAYAAACtWK6eAAAgAElEQVR4Xu19C5gcVZn2+1XP5IKBTFdPYLkECNM1kwALuAFUiEJ2BQENJCiIsCpXk+4essIisrpiYNVVAdknpLszsMYFAwIRyUUiIgQk/CyIUcGEkKkeAgaykKSrJyFALtP1/U/1TCCXudQ5denqmVPPM88Q5rud93xvnXPq3AjqqToCDdn2E0jTziTGJQDHGFhEhKetlPHbqgc3xAOgIV7+qha/4Q7zdC2GHwL4WG+BENOPi3Wd/47pJ+6saqBD2LkiSJUqX8+ZVwKYDWBk/yHwcrLxjWJr8/NVCnVIu1UEqUL1J7LtP2Ki6927ZouJZpZSxr3udZSkHwgogviBoksbifyaQ5ljswE+36XKnmKEWVbKuElKVylJIaAIIgWbuFI81/5ZgvYDgI8T1/5Qgxj37hw+YuaWK8daXuwoXXcIKIK4w8mTlJ4znbf+jZ6M7Kn8PMP+RindstxHm8pULwgoggSYFo25wkQb/H0AnwnAzQ4wf9vKNN8agG1lsgcBRZCAUiGeNdNE9H2AGwJy0W2W8ctYTPvWxhlNZqB+hqhxRRCfK74x90pLGbFvEfAVn033Z24dA98qpY35IfocEq4UQXysZj3bfp3z+ZaAMT6adW2KCXO6NPumd6a3bHKtpAT7RUARxIcEic/tOIfK5W+C6FM+mPNogtpBuNVKJe/yaEipA1AE8ZAGo+94ZVxdrO56Bs/wYCYYVcajxPatxdaWJ4JxMDSsKoJI1nNiTvtM1iqz4YdKmthb7S8ATvDJ1gdmGMgydd3amZrwmt+2h4I9RRDBWk5kO85nKqcA+rSgaj/i9HhMo3S53HU6yJlMRKN/tiuW1oNxq5UxbvfZ7qA3pwjioor3b1vTWN9Fl4DoYgAnu1AREKH7OUYzStObNjtKDXNf/ZRml38E4OMCRlyK0nIbfGtn2ljsUmHIiymC9JMCDXnzoxo7pLAvAehg37OFabaVSf7L3nb3n7M6Ua/FbgPoq7777B54/p5hz7e6tJ9jprE9CB+DxaYiSC81GZ9rTiHb2byELwZS0cxdAN9gZVpu68++njWvAeF7APYLJA7QGoI9v0zl+WqM0jvCiiA9uMTbOkajy76EqEKMU4JJyMrM9/O2jRs6rzaecuMj0bb2Y1wufw9gH8c8+3jezMB8AuZbaeM5N3ENFZkhT5DGbGGyTfa5ADlL0A8PsuKZkYttLd+w6Zvj3xH1o2fbbwbRd0T1JOQfItD8Yjq5UEJ30KkMSYI4e8A1TZsCm88F4cSga5UZG4lxg9VqzPPiS88WzmLi7xEw0Ysdl7rPEtEvbI0Wl6Y3/c2lzqATGzIEqZCC6HQwzgHhjLBqkoD7yl32jztntrzoh099tnkA1eFbDFwHIOaHzf5t0PtgXsLA4tiI8uJNV4i3fsHHGJyHQU0QfU77GdDoHACnBzEJN0C1PAfSbrVSTQ8FUX2J/KsnM5cdklwQhP0+bK4n0GIbWFyKdT4+FA6TGFQEcfZflIGJBHsyQGc50wohJs8uVxsYdGtpw/zbMGuWHbT/eL5wEZivC6nbtXtx3gLoKSb7qTq7ftHGzLi3gi5rNezXLEF2I8NEBk2sQoLsU18EmruTcduWTLIQamXONocn6vCvPd2ueKi+P3T2HDH/mkh7dFM6uaJKMfjuNtIEOfJna0d0buuaQKxNAJePJsIEgCYAzu/oPAQsYcYcK2M8Vs2oEtn2Caxp/wJm50ihEMYnfZeWgRUEXsHQVsSAFbVKmqoS5LCfrBu5bdiOsVyHsWAey8zOZ9axPT/NAMZVM+EG8u0QwybtzlKq6dcDyYb594a5a46nsnYlEa4Y+Nyt8CLrJg2tZPBqBlbXa9rqqO+E9IUgB93y4ke69ht1NMM+DsRHAtpwMIZDw3Cg58e2R+z6byLSuZsIfi/KC6W2o0qMvQtfaVGInNbEIcroUMARdsJdYFoNYDU0vAxgHYjXEfG6ui3b1r39jePfFTbpo4Jnguh587tgfA3AIT7GFUlTtUKMvcEb3WY2aV24EoQrqrXbUb5C2TneaB2B/gbCOma8zcB2ArYztG3dv7GdqNzzG9vLXVTcXJ/8K6aT5yNbPRFEz5kPhvyZUR5nD5q1Soy9i6xnC2NBlfHJPwM4ygMkkVftIdEKBt1dSifvlA1YmiB61jwThMF8+viLIDxsk72wc4Y/k3yyleS73mxzuB6jqSCexsBU6u4GD+bnN1bacObDhB8vBHkWhE8Ie4y2wiYQPczl8sJSa8vSaIfqT3Sj73ptXGznzmlgngaiSf5YjZ4VIjq/mEo+LBqZHEFmrRoWP7D+HQINE3UYSXmipbDLC3fW4eGhfCJIPNsxicieBmDqYOuCEdCh8Y4TNmaO2SqSg1IEaZzbcaJt2y+IOIqYrDN4Ww7C04OyC+UV7F1dMI3PBDutCjuf3Gv/YTrVyiSfFSmIFEF6Ln55UsRR9WXpJQYvJ7aX12uxJ99OJTdUP6baiKD7CFX6JGBPqnTDmA+qjcj3jJKhpUrpprkisQ9mgqwH0e/BvKxcX//E5quOXCsCjJLtGwF9jvkJ0jCZQZNBcAjjzHFF/5G4PmKwEGQHM1YCWEngP7GmPVFKJZ1/qycEBCoHTXB5Mpj/HsCxALWE4FbcxZAgCPMrIPprhQysrSTGyk2tTe3iaCmNwBBo+2N9gz362Fg3WY5l53c3eZzVE9V7BgVBnAMNiJzxwQaA3iTwShtYycwrOze+uRKzJndVD2Hl2QsClX3/9s5jAa1CHDCOJeBABsaEMsMfVYJUtpwSNjCwkYCNlX9r2MB25f9vtMvYqNVjw44d2Lh1prHRSyUo3RpFoI3rE3b7gWWbxmgxjGE7NoZgd5OHMIaZxhD4QHQfDO78iO/1iSpBrLQhNdap0apWYQeMgPRXVEWQgGtGmY8EAoogkagGFURUEVAEiWrNqLgigYAiSCSqQQURVQQUQaJaMyquSCCgCBKJalBBRBUBRZCo1kwAcel3mYdhO8ZCw2EgHFZxwXgDNt7AcKyzrjLeCMBtTZtUBKnp6us9+MMeXDfy3Q3v/xMR/SM0fBw2xn5AiIHK6xBGwzrY9LhGWFSrR+gMVEy3f1cEcYtUxOUacuZpWuXmW/s02DgNRHW+hMxwViYvZI2XjdRGLVs//ZD3fLFbI0YUQWqkovoKU8+bF4JxTTDXqO3lleht2PZCprpcKX3USzUOnavwFUFcwRQ9oXhbxyQql6/puWsk1AB7TvHIxzQtF/XD2LwCowjiFcGQ9UfPNpu0GL5OhNaQXffmzrktKkdMeSuTXBeBeHwPQRHEd0iDM5jIFy5lZudWWmelaZSetxjaTaJbTKNUgL5iUQSphVoCkMgWvu3c+BTlcAk8t5huTkU5RtHYFEFEEauCfCJrzufuCz9r4XnWShun1kKgbmJUBHGDUpVkGm9/+WB7eN1KgPQqhSDrdqtmd03c1Dqh5rcnK4LIpkDAeolsx0lM9h8CdhOo+RiTsTHsC358LpEiiM+A+mGuse3lg+1y/Xo/bPVho0hA5TZZ7r6OOhGUL2tCsh6TqWb39iuCBJUZHuzqOfM1AEd4MLG76nvM+B1puI9s/mvd/gf87e2v/N0e92AcdM9bH+l6Z8vhDDqGCOc5h0wDGOWTf+nDnH3y78mMIogn+PxX1nOmc4r9mZ4tEy0l8P28E4usmcYWEXtjsqtGdaF+CmnaP4NZ6qTyPfwx/4eVab5RJIaoyCqCRKUmAMSz5h2eJwCZnwG0OVYm+YAfRdOzhS8CdqvX09iZeEYp1dzmR0xh2lAECRPtfnwlsu3nM5G3e87Z/pqVabkriCLp2TVXgTTpy2GcmIjtk4uZlpo6iFwRJIhskrAZz5lPEnC6hGpFhdn+ZCnT8oysvhs9PWdeAMC56Uv2+ZmVNi6XVa6GniJINVDfy6eeM52ryqTf/BzTjihNb6p8lQr6iedePY5QflHWj23zaZ2tzU/L6oetpwgSNuJ7+XOup35vxPbnAD5OJpRqHZSn50yWiRfg+61085fkdMPXUgQJH/M9PMbzheupewGi8MOIHV+tfRnxto7DqWy/Lhx0pT+Iz1gZ4zEp3ZCVFEFCBnx3dwf8ZJVeN6L+JYAOlQjjQittLJDQ800lnl0ziUhbLmqQGYtKGcOZa4n8owhSxSqK5wsXEfMvhEMI8GuVaCyyX7dq5YuWIohoRvgor+fMeQAuEzLJ/IyVaf6kkE7Awnq2fbnoPAkx/Xsxk/x+wKF5Nq8I4hlCOQOVwfnw9zeC6CNCFpgu8msSUMhvP8KVyUTi+4XsEZ62UsZpQjpVEFYEqQLojsvEXPM8trFQyD3RUiuV/KyQTkjCer7wiPCylHqMjfpZXIogISXQ3m70fOE+MAt97mTmi0uZZvExSwhlTOTNLzPjHhFXDE6V0s1CN8GK2PdDVhHEDxQlbEjMI2yN8Y6DRS+nlwhNSkWfbR6AOvwfgP3cGiDCr4spY4pb+WrIKYJUAXU9WxgLYqGZbwLmF9PGl6sQrmuX8ay50Fku71oBQLUmOt3GqAjiFikf5eL5V04ljomtm2JcYGWMX/oYhu+meg6xE1tFHPFxiCKI72kysEGZ+Q9iPrqYaV49sPXqSSSy7ROY6GWhCGycYrUa/yukE6KwIkiIYO9yFc+2X09EQstL6kftP2rvnYBVCL1fl87OxJ1b39kqGFfVVwT0F68iiGBt+iEez5t3EAudjFi00kajH76DtqHnzE1Ce9wJ11op4/ag45K1rwgii5wHvXi+sJCYXQ9mCfhzMW38gweXoakmcuafGPioa4eM262Mca1r+ZAFFUFCBtxxJ7o5ioGnSmljchVCFXYpWjYAC6y0caGwo5AUFEFCAnp3N6JJNJgJEvWyKYIogviKwGAjvyKIr+nhzthgS6LB3DoqgrjLaV+lFEE+hFN1sT7EgmSyTJTBUV+6oAbpe2aBIogiyD7vBdWCqBakt8ZCtSA9qCiCKIIogvTTn1QEUQRRBFEEcTXkVGMQNQZRY5B+qKIIoggCPWueSYSJDBzPwEFgnECEBlev2Mq5u+gE4S9u5asqJ1+2NwhYAY1XWTOaf1fVMuzmXPQr6geqhFlWyrhJpBxDcpCu583vgjFLBKihLkvAkmLaODcKOCiCBFgLes58E8AhAboYzKZXWWnj2GoXUBEkoBpQLYd3YBlaqpRuquqpJ4og3uuxVwt6zvwzgBMCMj80zBL91UolpU699wsgRRC/kNx9YHf72gZteFfJP9POTQNSQzj/QqiSpTKG6ZvTR/iIpVhBFEHE8HIlLQ2qK+tDS8guY3Ln1cZT1Sq1dF2qr1h9V9nAoA7mFsHfsimCDPBqGDjZ9jQQhdW8ojFX6+1Yfb8Dk0kRRBGk+nka4QgUQYY8Qfp7izoDc8mrACOR9N7Lpggy5AnSw4HB+pFq4F5UvxmgCKIIUkHAWbQXiZd+wEGI3gWvCKIIUkGg2okQMC8q5mU+XlQbF5mYK4VVn3m9fObdV7faiaAI0jsCiiABZIYMqIogvVdEtXGRqUvVgvjcLVRdrL4BVQTxOdlqdaKw2okQQEO6j0mZt3G1cZGJWbUgPpNatSCqBeke10s8ogxWLUjfIB/w3+v0uu3bvgrw2SA6CcAIApxbqx7rKpfbNl89fq1EFblWEa3LKLw4ZGJWLUgNtiDxnPlNAn7YT+hlIlxWTBk/d53xgoIyyaa6WD4nm2pB9gU0nm//HDEtcZnPn7DSxnMuZYXEFEH6h0t1sfrBJ8g3pZ4zywA0l9n8kJU2vuBSVkhMEUQRpIJAlBIhccea8RzThG7HtbowAjON7ULZ70I4Sri4CFe6LtUYxOduYZCDUamkJPxDZ8pw9tT7+kjFonYU9l8HoqCqMcieeIriFzmyKoIoggyVpIwSWd02jTIxqy7WYO9iBfTWlkm2ID9euCGJTMyKIIogbnJrHxmZZFME8TnZ1BhEjUGk2NuHkgypVQviM6nVGKRvQFUL4nOyqRZEtSCqBekHAUUQRRBFEEUQ1zkg04cOqlsTpVjcAigTsxqD+NwtVGMQNQZxEFCLFfsh1lB4a8u8jYPCRbUgbhEIQC5KiaBi8VbBMvipLlYNdbES2fYJTPSySJoE9daWSbagYnGLh0zMkSbIASPrRr522bhtbgEIQk4G1CATQc+ZRQC627LGuO7gjZlxb7mVdysXNVzcxK1nC2eB+DduZPeQCevguHi+cCoxP+M2wJ32yMZ3Wg9zEqJqT9QSIZ417yBCq0tAFlhp40KXskJiUcPFTfCJbMf5TPZDbmR3l2HghlLa+JGIntQgvTFXmGiD/+jWEce0I0rTm/7mVj4Iuaglwqh84cBhwAtgPrzf8jJ3EXBcMdMstMHKLYZRw8VN3Im8+WVm3ONGdk+C0PRSOnmniJ4UQfS55tGwscq1oy4cY800hPrcrm27FIxiIsRzrxxHHJsLwif6KMZfNKZrN2WST7osprBYFHEZqBDxXPsMAuUHkuvl7xdaaWOBiJ4UQUbn2o+KgTrcOiK2Ty5mWl5wKx+EXJQToecAh38C0MKMHZpGL8AuPxYGZlHGpa880HPmtQBuE80TAp9RTDc/LqInRZDGttcOtss717t1FORg120MtZgIbsvmRa4WcdGz7d8B0c2i5dZAJ25KJ1eI6EkRZHTu9XgMOywBR9dYaeO/BOR9F63FRPAdhF4M1iIu8Zx5DwFfFsWnDG7anG5+VURPiiBH/mztiC3vd73v1hED95TSxlfdygchV4uJEAQOe9usRVz0XPuLAB0nio/M/e5SBHEC03OmwEV99JKVTh4vWiA/5WsxEfwsf1+2ahEXsdz7sOQyq8qlCZLImX9i4KNuK9FqTNbhQnIOS6vKU4uJEAZQtYZLPPfqcYTyi+LY8Bor3TxeVE+aIHrW/CkIl7t1qJXLJ226erzruRO3dt3K1VoiuC2XV7law0V6DoRoUSmVnCqKlzRBEtlCKxPf4dYhgWYW00nX8m7tupWrtURwWy6vcrWGi54zbwfwddFyE9GPi6nkN4X1RBV2ycfzr5xKHHO93ARAYMsl3JRBJhHULbe9I1vNz/Z6vuCsPjjRTZ3vIUO4wkoZ80T1pFuQQ9r+uN+28uh3BRy+ZaWNgwXkfRWVIYivAQwiY9UiyKjZ5phhddggAyVTeVIpNf7/iepKE8RxpOfaXwGoxa1TYu3kYqapKjPqiiBua2lguWoRJJErTGXwwwNHuK/Ezpg95p3pLZtEdb0RJG/eCcZVrp0yrrUyhtOHDP1RBPEP8moRRM8VbgH4OomSmFbaaJbQk9tyu8tRIrdmKkNzz2jG01bGOE0mUK86iiBeEfxQv4oE+QPAzjV1os9/WWnjGlElR95TCyKx5AQE7YxiuklowZhMwfbWUQTxA8VuG9UgSEPOPFcDFsmUgkHnlNJJ8Q1WXgniBKtnzcdAOEMg8P+20ob7bpmA4f5EFUF8ArJKBEnkzHsZuFi8FLxTG24nNl0x/h1xXY8tiOMwkTP/jYEfuHfOW2277tjO1qNed6/jXbLh9rUN2vCukndLQ97CNqsLDUHcdtUXsom2teO53LUSQEwUfQYWl9LGeaJ6u+Q9dbEcI/G2jklUtpcLBcC4zcoYMoMtITd7C+s507mh6QRPRoa4MhMWlVKG8Iy0F9j0vPldMGbJ2GDw9aV08y0yuo6OZ4JUulk502H3MSJBkG1/utja8oSIjldZL0B79T1I9HeQzZ8qtjY/H1Z5EnPaP8YaPQ1gmIxPTdNO2jSjSXqJkz8Eybd/Byy4gYXoCSuV/LRMob3o6DnzTQCHeLExZHUlTgXxilU8by4khlQXiYD7imnjEi8x+EKQxjs7mu0u22lF6oWCIbrOSiWFt04K+ehFWLUk4ggS0FpMG1lxTXmNeL4wnZjnSlsgnGWljN9K6/vVxXICSGTb5zORIFvpPdu2z+5sbXaa0FAfPWueSYSJDBzPwEGhOq8dZ28QsAIar7JmNP8uzLB7zj1wDqvo/9SXvoP6rZU2zvIasy8tiBNEPGtOIcJi0YAI+HNsR+zsDV8/6m1RXSU/eBHQ8+YCML4gW0IGX1JKN98nq79LzzeCOAb1XEFyppPvt9LNX/JaGKU/OBAQnzrYq9yMP1oZQ2bGfR8AfSVIPF+4iJh/IVVNVRgASsWplAJFQM+bnwHjUS9OmOhLpVTyfi82AmlBuluR9l8AdJFUcIokUrANFqWeAwkfFJ0y2LP8/vZGfG1BnEAb8uZHNaZnAN5PsuKqfkSQZNxKzQsCbVyvlwvORK7QfNqeLuk9m3hSZ8pw7Pjy+E6QSiviYeazUiqNzwz7q4kvaCoj0gjITDb3MmCYZaWMm6SD6EUxEII4uw23l0c/I3Lqyd6xEWhaMZ1c6Gdhla1oIqDnTGen3yleonO+hg6PbZ60fvqJ73mxs28e+mltN1vxXOFsAi/1aP5frbTxE482lHpEERh912vjYjt3/h7AWI8h7iSis4qp5DKPdnpplPy2uJs92TNU9wiJcZe9X931nZeN6wwwVGU6ZAT0bOGLIPbrS1Ngs/yBdLF2xzqeMxcRcK4n/Akvkq3dXMw0/cqTHaVcdQTGZFeNKmvDbgZDaoff3gVgIFtKG24vIhIuf+AE0WebR6MOzjIFzwsEHTCGEd38diopdbKFMDpKwVcEuuc4+D8A8mUSD8AyK7b5LEw/caevge5mLHCCOL78bE4BrGaim/2aCAoKWGV3TwT0fOFmMH/HR1zaUYfzra8Z7i9yknAeCkEqJJljXg4NP5WIsXcVortQxzdbVxlv+GZTGfIdgZ6Xo3MS4sd9NP4mI3ZOKX3USz7a7NVUaARxvMueq9oXCETocC5SKc5ICt9XFzSwQ91+w9z2T2ll7esgnuYrFoxOm2MnhLVlO1SCOEDJrvodAOTfMtH/qG6Xr6koZSye7ZhEsC8F4QopA/0q8U6OxcaUpjdt9t92Hx2VsBzt7kfPrj4FVCd8DKSLWJ9nwt0jtc13+z1h5ML3kBbpefE5lyR9Phgg6P+sdNLzhx7R2EJvQXYF2DDn5SM0qv8LCA2iQbuQbyfgbpB9dzHV4myxVU9ACCSyha8wsUOMfwzIBcC81Mo0fzYw+/0YrhpBnJj2b1vTWF/WHggKXAY2Evhu1NH/BP21oxqVVy2f8baO0dRVvpSIvuplOZHL+KVPRXRpv1+xqhLEieyQtvX7bSu/93OAz/ejQL3aYO6CpjlbgheUZjR5Xf4SWJhRN9wwd83xGmtTwXwpQEcGHa9z3lopbXw7aD/92a86QXYFl8ib/8mMG4IHg19gYAFTeUFnasJrwfurbQ+VVr4L06DFHGKcE0ppCG+AtRutdNPPQvEX1S7W3nHp+fbPM9MPCUiGAMy7IFqgWpXekY7PWXMOxSqkcD7TNoZQHz0u6P6YRjdunNFkhuezb0+RaUF2hdgw59UjtJj9n2AOcY+6alUc/D/sQsEhRbi3EhMsYtwY9tFCA5EwcgT5oMvVfQfi9T4shR4Ig93//i4DvyJgiTWybgkuG7dNRLkWZRP5NYfaXDeFYDsLSs+uShkYv7Rjse91zjhK4vbaYCOOLEGcYuvZwljW+HpiBLZasx94X2fGkgpZMsZjwVZDuNadFbVdqJ9CmjYFzFMAjAo3gh5vjLUAvm9lDP+WIPlckEgTZFdZ9TntZyBG3wALXbPgI1T8EqAtJiovKaZa/uCj4VBNOZvYNNjnMsghxaGhOt/LGQF57sIPrJnRXktXEwT5gCg580qgsoTBz4VvYnlCeBo2L9HIXrIpPX6NmHL40nq2cAppPIUZDik8HIjgU+zMD7OGeaVU8699shiomZoiyC4k4lnzEiJcHtQEo3vEaRnBfpJZW2Zlks+61wtW8oBsIVmn4TwwpgI8KVhv7qwT4V6A5gWxLdZdBHJSNUmQXUVN5NdMA2uXM/A5ueL7qMX8CmsOYbRlXe9ve3LLtcdYPlof2NSsWVr8wEsuJtpFDNQNrBS4hA2in4J5npU2ngvcWwAOapogH3S9nJ1qNi4H4cIAMJIxuRlMy4jsJ9mmZVZrcJt6GnLmaUT0BQJPBeMwmWD91+GtYMyzyzyvc2ZL5L5MiZR3UBDkg65X7tVPEtmXdy+FiNTzHAiPUpkf9ePymUR+3aHA9kvZxlQQnxihkm5gxry6mDYvKhN9XrEZVATZBUZjrjDRBr4I4AKAA18zJFgJz4PwGxmyxLPtX9KILo5El3K3QjNoBdh+UNP43sG2enpQEmRX3R10y4sf6dpv5AXsEIUonHVEImwhWuoMXK1U00N9qSWyHSeB7MsqZQh1yceABXHGFw8Q8QPFGYbU9cwDeoiAwKAmyO74OonGxE6SRa5VYeAp2PYtpdaWykrjA36ySq8bXncZSHO6isdGIE92D2E1CA+QzQ8WM82rIxab7+EMGYLURKvC/AyDipUvURF7mLEI4AdKG40HMIvsiIUXWDhDjiC9tSoMnhbSCuLAKjIIwwwUNKJfkcYPbJpu/CkIH1G3OaQJsnvlOMswAPtsgM4e4mR5nYClNrRHSqmjloKIo57EQcanCNILukOQLOsBLCXQI8XG7Utx4TE7gky6WrKtCDJAbQ1WsvTs13e+oj1SP2r/pW9/5e/eraXEDStWRRABpCtkIT6n52J7r0f2C3j2TbTTuZLCRuwR3q4t7bxGnZg/ELKKIAMh1MvfnYMm3uf3zyPbdr42OT8jJMyEo8LsbC2udJ+2d/HSrTONjeE4HhxeFEE81mNDfvWRMdSfy+wQhYM7G0oszh1cGVPgEa1cXrrp6vHOGEM9EggogkiA1pdKIrvmJKbYuaisqOW/99G0G1NMhEdsYCmXY0vDOrvWTWC1LKMIElDt9YxXPkdcWYp/eEBunFMHnwHRw11Mi7dkkoXA/AxRw4ogIVS8nu/4PMCfA7NDFj+O0HkVwEIm+lUplQzijOMQUKkNF4ogIdeTnjMvAOMLoErL4voueajtZVcAAAA2SURBVAa2k0MKDfeWZhhLQg57yLpTBKli1VfI0r1K1/np4+HHiXFvsW7LvUFeNVZFGCLt+v8DKUUDuRRsS/sAAAAASUVORK5CYII=;" vertex="1" parent="_VsH6jPjc1Dl-bb9zUJQ-86">
          <mxGeometry x="47.49999999999999" y="-1" width="31.11" height="31.11" as="geometry" />
        </mxCell>
        <mxCell id="_VsH6jPjc1Dl-bb9zUJQ-80" value="1" style="text;html=1;strokeColor=none;fillColor=none;align=center;verticalAlign=middle;whiteSpace=wrap;rounded=0;fontColor=#737373;labelBackgroundColor=none;" vertex="1" parent="_VsH6jPjc1Dl-bb9zUJQ-86">
          <mxGeometry x="11.20000000000001" y="24.50338028169017" width="15.860000000000001" height="18.450704225352112" as="geometry" />
        </mxCell>
        <mxCell id="_VsH6jPjc1Dl-bb9zUJQ-81" value="0" style="text;html=1;strokeColor=none;fillColor=none;align=center;verticalAlign=middle;whiteSpace=wrap;rounded=0;fontColor=#737373;labelBackgroundColor=none;" vertex="1" parent="_VsH6jPjc1Dl-bb9zUJQ-86">
          <mxGeometry x="75.56000000000003" y="29.108450704225447" width="15.860000000000001" height="18.450704225352112" as="geometry" />
        </mxCell>
        <mxCell id="_VsH6jPjc1Dl-bb9zUJQ-82" value="1" style="text;html=1;strokeColor=none;fillColor=none;align=center;verticalAlign=middle;whiteSpace=wrap;rounded=0;fontColor=#737373;labelBackgroundColor=none;" vertex="1" parent="_VsH6jPjc1Dl-bb9zUJQ-86">
          <mxGeometry x="84.44000000000003" y="25.498450704225434" width="15.860000000000001" height="18.450704225352112" as="geometry" />
        </mxCell>
        <mxCell id="_VsH6jPjc1Dl-bb9zUJQ-83" value="1" style="text;html=1;strokeColor=none;fillColor=none;align=center;verticalAlign=middle;whiteSpace=wrap;rounded=0;fontColor=#737373;labelBackgroundColor=none;" vertex="1" parent="_VsH6jPjc1Dl-bb9zUJQ-86">
          <mxGeometry x="91.42000000000002" y="24.268450704225415" width="15.860000000000001" height="18.450704225352112" as="geometry" />
        </mxCell>
        <mxCell id="_VsH6jPjc1Dl-bb9zUJQ-84" value="0" style="text;html=1;strokeColor=none;fillColor=none;align=center;verticalAlign=middle;whiteSpace=wrap;rounded=0;fontColor=#737373;labelBackgroundColor=none;" vertex="1" parent="_VsH6jPjc1Dl-bb9zUJQ-86">
          <mxGeometry x="99.11000000000001" y="24.498450704225434" width="15.860000000000001" height="18.450704225352112" as="geometry" />
        </mxCell>
        <mxCell id="_VsH6jPjc1Dl-bb9zUJQ-94" value="" style="group;fontFamily=Times New Roman;labelBackgroundColor=none;" vertex="1" connectable="0" parent="1">
          <mxGeometry x="187.89" y="670" width="80" height="20" as="geometry" />
        </mxCell>
        <mxCell id="_VsH6jPjc1Dl-bb9zUJQ-87" value="" style="shape=flexArrow;endArrow=classic;html=1;strokeColor=#23445d;fontSize=12;fontColor=#FF8000;width=29.72222222222222;endSize=5.611111111111111;fillColor=#bac8d3;labelBackgroundColor=none;" edge="1" parent="_VsH6jPjc1Dl-bb9zUJQ-94">
          <mxGeometry width="50" height="50" relative="1" as="geometry">
            <mxPoint x="2.1100000000000136" y="11" as="sourcePoint" />
            <mxPoint x="82.11000000000001" y="11" as="targetPoint" />
          </mxGeometry>
        </mxCell>
        <mxCell id="_VsH6jPjc1Dl-bb9zUJQ-90" value="" style="shape=flexArrow;endArrow=classic;html=1;strokeColor=#000000;fontSize=12;fontColor=#FF8000;width=29.72222222222222;endSize=5.611111111111111;labelBackgroundColor=none;" edge="1" parent="_VsH6jPjc1Dl-bb9zUJQ-94">
          <mxGeometry width="50" height="50" relative="1" as="geometry">
            <mxPoint y="10.8599999999999" as="sourcePoint" />
            <mxPoint y="10.8599999999999" as="targetPoint" />
          </mxGeometry>
        </mxCell>
        <mxCell id="_VsH6jPjc1Dl-bb9zUJQ-91" value="Features&lt;br&gt;extraction" style="text;html=1;strokeColor=none;fillColor=none;align=center;verticalAlign=middle;whiteSpace=wrap;rounded=0;fontSize=12;fontFamily=Times New Roman;labelBackgroundColor=none;" vertex="1" parent="_VsH6jPjc1Dl-bb9zUJQ-94">
          <mxGeometry x="17" width="40" height="20" as="geometry" />
        </mxCell>
        <mxCell id="_VsH6jPjc1Dl-bb9zUJQ-101" value="" style="group;labelBackgroundColor=none;" vertex="1" connectable="0" parent="1">
          <mxGeometry x="270" y="670" width="80" height="20" as="geometry" />
        </mxCell>
        <mxCell id="_VsH6jPjc1Dl-bb9zUJQ-102" value="" style="shape=flexArrow;endArrow=classic;html=1;strokeColor=#9673a6;fontSize=12;fontColor=#FF8000;width=29.72222222222222;endSize=5.611111111111111;fillColor=#e1d5e7;labelBackgroundColor=none;" edge="1" parent="_VsH6jPjc1Dl-bb9zUJQ-101">
          <mxGeometry width="50" height="50" relative="1" as="geometry">
            <mxPoint x="2.1100000000000136" y="11" as="sourcePoint" />
            <mxPoint x="82.11000000000001" y="11" as="targetPoint" />
          </mxGeometry>
        </mxCell>
        <mxCell id="_VsH6jPjc1Dl-bb9zUJQ-103" value="" style="shape=flexArrow;endArrow=classic;html=1;strokeColor=#000000;fontSize=12;fontColor=#FF8000;width=29.72222222222222;endSize=5.611111111111111;labelBackgroundColor=none;" edge="1" parent="_VsH6jPjc1Dl-bb9zUJQ-101">
          <mxGeometry width="50" height="50" relative="1" as="geometry">
            <mxPoint y="10.8599999999999" as="sourcePoint" />
            <mxPoint y="10.8599999999999" as="targetPoint" />
          </mxGeometry>
        </mxCell>
        <mxCell id="_VsH6jPjc1Dl-bb9zUJQ-104" value="Pre-&lt;br&gt;processing" style="text;html=1;strokeColor=none;fillColor=none;align=center;verticalAlign=middle;whiteSpace=wrap;rounded=0;fontSize=12;fontFamily=Times New Roman;labelBackgroundColor=none;" vertex="1" parent="_VsH6jPjc1Dl-bb9zUJQ-101">
          <mxGeometry x="17" width="40" height="20" as="geometry" />
        </mxCell>
        <mxCell id="_VsH6jPjc1Dl-bb9zUJQ-120" value="" style="rounded=0;whiteSpace=wrap;html=1;strokeColor=#82b366;strokeWidth=1;fillColor=#d5e8d4;fontFamily=Times New Roman;fontSize=12;labelBackgroundColor=none;" vertex="1" parent="1">
          <mxGeometry x="360" y="655" width="40" height="30" as="geometry" />
        </mxCell>
        <mxCell id="_VsH6jPjc1Dl-bb9zUJQ-121" value="" style="rounded=0;whiteSpace=wrap;html=1;strokeColor=#82b366;strokeWidth=1;fillColor=#d5e8d4;fontFamily=Times New Roman;fontSize=12;labelBackgroundColor=none;" vertex="1" parent="1">
          <mxGeometry x="370" y="665" width="40" height="30" as="geometry" />
        </mxCell>
        <mxCell id="_VsH6jPjc1Dl-bb9zUJQ-122" value="LMVD" style="rounded=0;whiteSpace=wrap;html=1;strokeColor=#82b366;strokeWidth=1;fillColor=#d5e8d4;fontFamily=Times New Roman;fontSize=12;labelBackgroundColor=none;" vertex="1" parent="1">
          <mxGeometry x="380" y="675" width="40" height="30" as="geometry" />
        </mxCell>
        <mxCell id="_VsH6jPjc1Dl-bb9zUJQ-123" value="" style="rounded=0;whiteSpace=wrap;html=1;strokeColor=#b85450;strokeWidth=1;fillColor=#f8cecc;fontFamily=Times New Roman;fontSize=12;labelBackgroundColor=none;" vertex="1" parent="1">
          <mxGeometry x="360" y="590" width="40" height="30" as="geometry" />
        </mxCell>
        <mxCell id="_VsH6jPjc1Dl-bb9zUJQ-124" value="" style="rounded=0;whiteSpace=wrap;html=1;strokeColor=#b85450;strokeWidth=1;fillColor=#f8cecc;fontFamily=Times New Roman;fontSize=12;labelBackgroundColor=none;" vertex="1" parent="1">
          <mxGeometry x="370" y="600" width="40" height="30" as="geometry" />
        </mxCell>
        <mxCell id="_VsH6jPjc1Dl-bb9zUJQ-125" value="DNRC" style="rounded=0;whiteSpace=wrap;html=1;strokeColor=#b85450;strokeWidth=1;fillColor=#f8cecc;fontFamily=Times New Roman;fontSize=12;labelBackgroundColor=none;" vertex="1" parent="1">
          <mxGeometry x="380" y="610" width="40" height="30" as="geometry" />
        </mxCell>
        <mxCell id="_VsH6jPjc1Dl-bb9zUJQ-126" value="" style="rounded=0;whiteSpace=wrap;html=1;strokeColor=#6c8ebf;strokeWidth=1;fillColor=#dae8fc;fontFamily=Times New Roman;fontSize=12;labelBackgroundColor=none;" vertex="1" parent="1">
          <mxGeometry x="360" y="720" width="40" height="30" as="geometry" />
        </mxCell>
        <mxCell id="_VsH6jPjc1Dl-bb9zUJQ-127" value="" style="rounded=0;whiteSpace=wrap;html=1;strokeColor=#6c8ebf;strokeWidth=1;fillColor=#dae8fc;fontFamily=Times New Roman;fontSize=12;labelBackgroundColor=none;" vertex="1" parent="1">
          <mxGeometry x="370" y="730" width="40" height="30" as="geometry" />
        </mxCell>
        <mxCell id="_VsH6jPjc1Dl-bb9zUJQ-128" value="CB" style="rounded=0;whiteSpace=wrap;html=1;strokeColor=#6c8ebf;strokeWidth=1;fillColor=#dae8fc;fontFamily=Times New Roman;fontSize=12;labelBackgroundColor=none;" vertex="1" parent="1">
          <mxGeometry x="380" y="740" width="40" height="30" as="geometry" />
        </mxCell>
        <mxCell id="_VsH6jPjc1Dl-bb9zUJQ-129" value="..." style="text;html=1;strokeColor=none;fillColor=none;align=center;verticalAlign=middle;whiteSpace=wrap;rounded=0;fontFamily=Times New Roman;fontSize=12;fontColor=#000000;rotation=45;labelBackgroundColor=none;" vertex="1" parent="1">
          <mxGeometry x="450" y="635" width="40" height="20" as="geometry" />
        </mxCell>
        <mxCell id="_VsH6jPjc1Dl-bb9zUJQ-130" value="..." style="text;html=1;strokeColor=none;fillColor=none;align=center;verticalAlign=middle;whiteSpace=wrap;rounded=0;fontFamily=Times New Roman;fontSize=12;fontColor=#000000;rotation=45;labelBackgroundColor=none;" vertex="1" parent="1">
          <mxGeometry x="350" y="635" width="40" height="20" as="geometry" />
        </mxCell>
        <mxCell id="_VsH6jPjc1Dl-bb9zUJQ-131" value="..." style="text;html=1;strokeColor=none;fillColor=none;align=center;verticalAlign=middle;whiteSpace=wrap;rounded=0;fontFamily=Times New Roman;fontSize=12;fontColor=#000000;rotation=45;labelBackgroundColor=none;" vertex="1" parent="1">
          <mxGeometry x="350" y="700" width="40" height="20" as="geometry" />
        </mxCell>
        <mxCell id="_VsH6jPjc1Dl-bb9zUJQ-132" value="" style="shape=curlyBracket;whiteSpace=wrap;html=1;rounded=1;strokeWidth=1;fillColor=#F0F0F0;fontFamily=Times New Roman;fontSize=12;fontColor=#000000;rotation=-180;labelBackgroundColor=none;" vertex="1" parent="1">
          <mxGeometry x="425" y="600" width="20" height="160" as="geometry" />
        </mxCell>
        <mxCell id="_VsH6jPjc1Dl-bb9zUJQ-134" value="" style="shape=image;verticalLabelPosition=bottom;labelBackgroundColor=none;verticalAlign=top;aspect=fixed;imageAspect=0;image=data:image/png,iVBORw0KGgoAAAANSUhEUgAAAUAAAAC0CAIAAABqhmJGAAAOtklEQVR4nO3dz48b533H8bei1Ipl0n1ix0GWAYpJDXAdGAjG3U2BBE3AAEEvjdvtrVIu6sXKUYDzBygIcosA3QKpQKFDYZ1aLCpfgvTAXNqiEItpURRYFmmfFDWFIj/8JKTixFHsHIbPPN9ZLq3VLsnd4X5eWCwfDh/OzEp8+J3vPM88cw6eJnkHEWmOD530DojI0akBizSYGrCIiIiIiIiIiIiIiIiIiIiIiIiIiIiIiKzUuZPegbND113L4ulqJJEGUwMWaTA1YBERERERERERERERERERERERERERERERERERERERERERERERERERERERERERERERERERERERERERERERERERERERERERERERERERERFZGXfSOyAiIiIiIiIiIiIiIiIip9q5pW+h9RJAp3zyFsAIgImtNF76boisow+d9A6IyNGtqAFnkK1mSyJnyYoacFADFlmCDy99C50vAg4COMY92C3z4eGbS9+0yLpbUQT24OAa7AKKxiILsvwG3Jn++A79Eb0RgF/6VkXOhBVF4B4ARQzF2Wq2KrLulp8Db+wBxQOAwNMBKK9o7b6Q6gzfM294uPRdElkXK4rADoIpe12VLrIIy2/AYxiXp6Cnsnp7FpEjO4EI3IN8NVsVWXfLz4EnnyeGX7d9HihaFMDw+6aSRnSKHMXqRmIRx2MVOgstsiDLj8BAPGYOZRueKAEWWYzVjcTKYxzOFIFFFmT5EXj0EHAd+sD4hx6yciTW0G5a1wOLHMWKDqGdOQtdrGaTImfAig6hixHZKD4Z4xRxRRZhdTlwiGWnURwiC3K4Q+jWx1N500xmNfi1qWTL1t+XDxkUe1+k6klqPeurKhONhRY5itWNoAj1gl/ZhkXW14k1YBE5vidrwNkxtuRiwR9jJSJiPcG80D0o6vEzb71SgOuUCy8CtHEQ9t7KYkN1PEpvmfyM6UKC+n5Fju0J+oH7M0sKAALkMcD2D0pxsziIsuJ0IC2yCIsYyDGiIN57ob3/xXBQW/UL2KqI6Do+ERERERERERERERERERERERERERERERFZrSe4HrhhWn+UypN/My/oOmRZH7oaSaTBVjSx++q5qwRwAwIHzUUgshbWOQK7+COyrtYrB+69TGyxO3xvF9gig+LWl1Kdyci8QfmwNNvaRuA+OMh1KyZZa+uVA29BnILLDab3Mc3Ab07DcgAGJ7BfIkuythG41IcQJ8EMyodl7TQzB7702fLRQRg+D7AB4IYuMJ0f091/OY+nn7PO//rqvcM3zIp0HyZptmZH4FAPqiEWMghm8tpMZ6RlTTUzB34AwAYOwsa0ZXpwHYB8hK/PHe/jCa3dVe6kyPI1OAK7WAjgzX2bAhCfuth0ieelRdZJMyPwhgPysk0OP0cVgfnnAFm5fPuVsq6DPt93EKYdwA3+zhLZp8Gf5j4Qb8sUYph1sePXxXhb/g6r2iuRVWpmBCblvX0A8g4eQhxYFcCPCOC6BGLOLLJ2GhmBc8jrp6B9jMAlF4dw7EBmbp4osmaaE4EvvVwV3YM3HYQRDlz7QQZ+TADG/0FcXmz/K1AM8ZC3c6junPhPK9xpaazWhVSevGde+PWc+i+bJz817w1m+TvH3699GhmBHYQYY/O4MK/XCRCgmJ7EEllPzYnAUQ6uNe062oEwJgd6BHBtgHCPAPkoDaLMYxt2OpslK9Ax5eFyN9W8CFyYso8/LobcUK+cxV5iF8siy5Cd0HabE4HvvQ+wDVBsXAjg2jgI4x+Reoy+HCDvUIAfXXUQOmRQjL5wAjssp4qdI433Tflp4HqZcF2/4CGU8bP9CaoBfK8/b+rnAK8DcPc7AK8B+NF/AWwCMP4dU/93U/HGUxAvQm+bfdgz5ckj897H58zNacCGN72+If5k5mkpM4O0gsKvGK7+ebheX54BsUI/vtSLZ1VOleY04G2I2W+Z62Zt+pCNCeCGBMi7AAF6QAcH2QYefBcH2YgAYck5iZxSndqzUJVeBdJV4uVyb2o64Mb0NEoGvDFdGJheAzd1fc627PJSOSJw+zH7e0jNy4GJncABMCOuMiB2DrtYM8A1cylStVxkHnfQJW6FKc+reSKacz1w6xmYfrf1th468MNpNHZAt7w2+Eo//pv2xndCPH4uxmMHO21uAoNPmJXqeuC11vqaefJcKr76NwCXAbg3Scv7T6dy56OpfP9nZvkLlNO8ALwNcXzBxkOI55yHb5t9MP3J9oB3+91Ufv3F8tFB2PhkWv51sw/9vzPr+VVVanAEvha7gl09pQnmx5vIHE7B96WsB7/kz5I79PqbkwMbN2EHfBsHOy0KCON0diEDD0U7De240uNm9WbNiXXWzMs2LwExDpfK7LQzU3N6Xtr8LgNGy9QZmppHPc8SZqZ/6sWO0nkaGYGBXSigMJE2xL/Tx38FFyvPLhH5YG6mYJ+6ePS3pE1XW/HgypOycywnArc+bZ58LBW3n4V47q49HV/qIIz/n+owuPN+Vn3lDJ6C6VyTDNrpvXwV6G/Qg/74LzNgTAZs/GEAP6QHfe642NuU8UwO2QAPtExeUetz+xXSIK3PmCdfIF03+hOI/bHtjDi1sBvdDsT4OQoQo+Vtcx5kK/W7htEz1Tpd58OhWv6V8y6Gjfz2H1TrcaMfBGIMb/0irXN7zjjqrXYq3/iftF1eBBiVzeHZANwAcBu38zjKEP7Bx/orPYR2JlN1sRBmCn6m8qwsZsLl7x3YBTczaU7PhOWgCLzWwpzlxRLWuW/N7hib2MfFje7bdJjTC73EBuw6BKb9bK5MTU3+GWxVe71u+b04IIBrpZrTXLfsAR5Pjy4C5OX1Rp3p/M89KNp4YDBtvUU8CAkjzYm1btxsG7t9cHla7fC34hiZlZefya/Utuggu5y6l9x9M15oEX28WTyELrflBxSQdWpTVoSlNuBgZsMI9a8rZ+pw0Pecm/m/2Y3LQ2y6mPUX5q/K4sKb0KvPZZfr4qT1Ek5o5c58pB0pnPC4I8cPkJsVYpqGM03Jx2jkY/kc2HGbc651PIzuV1PZnMfrjV8K1VDH8aMCsjJn6P67h6JdNrlJqPZ49GlSAzbjSLdeAsKAHNz4L4CdB9yEbO98D65fJQfXvQO4B3jIvv2eB3cVD1n/AnEAZjH+RwdFmatM/tr8AYu/VlMWzJ5b6Zgc8jWfyoOHEI/p7G2w7Pjn7oup/OZ/mvV/JJUnv0zlnvkc8oJZzydhGtWzzsW0Eze+a+qbNtX6PbM89S3vbH/KVxFuK4MYZPbMoenmxfIxgzD4M2KTXnoOHOpxODPpqAfiLFZ5fXBViG+h/g1U8jGQZvFIYweymAb71M+e3p6ZAVvVSyJH5uondPwxVrVbX20pzGyl5M2Mq36RDbgcI1VmrcM0pNF3UgePzUCq3fLAgILp2Wb3IP0NV2AXwlba3XyTANkWQNZnFxjTg3zATap5J82/Zn+6XQ9hhIdQ5ie172ZpIPs/aHtul93PH/uKQ7WkTWBhnyjXJ5BaSoghx9WbTB4XLj4CB3Pi92hvD7F8J14CEiCPFxVlQPyrsno/cMkdlIQE81vEndYPg585px1iwdnzZ/GQe3E5cGuzKrrec6HaXvudattu809disZfzqqdu/XfVF82V7+ZdnTQCeC6AHR+Wv0x+bf/r0h/lcur81KTH5sd0jjntdNyAFcBuGVy1MlvTCX7GT6fiq99NpXH34IYt0d/BTFuD/92znoss85LLpUf2MsKTL5duzbY7MPeD81yMwahc5Eq0eu8DfF8+KhVbSxs/jHQ6y0hAmcmhIaY2XqA6bXRmKQ0i9V8/TghxFUR6/v6V2YRl2PWL/JY7rQG3n18/WRNML9LLi5ZcAOebrI/fVrU96B/z9SMecsOuG08cJ8+1XwFH7T31Jf4mZdE9htC9ZnZmHl1K9VZutm+6NnR14/7VId46veEL2Zw9Q5ekTPOHaIhOHPEeg6eMS8pb5SG6JrrurdMDjk2ueubtm/f5Mnd34cYde0czndt/UPMBX0cpk/YbV8ITM9jO8ahemH4o1S/23VV2x79ObBzmdDcq5FE1lI49Mhqv+B+YJEmOgVzpIX7QMqEw0F13LRPJy0p3mBHDVikEYIpOyDerkA5sDRHy/apXkzFzlMQI9jY5MbtH6Ry3+axxxnvYObNmph5rWyOPU/XzI81PMz9lkzbNGOzs9ZvHOR3yZUDizSOj6lyX4fQ0kSOeP+EsyrAnSWNhRZZtlC/aNZy9WrrKgBwXTmwNNb5gxff26qK7vq7VM14bwxxroy+T/V75hrgvhlfbXPa2r2CHx1cZ96+de1c0x2orlv6VFo++hez/p+n8tZTqTz+SHrv5G3iWA7lwLK2Qn3mlnVyJ46X1iG0rK+96WOIC9zqj6u7ptwH4lHAvOuZ5/VLmzmrrw25AsA1RWA5U8JaROObAFyDQjmwLI29J9ApnnP71vMAdwEYXYA4RvruT0ylw/TZHiJPvvQnqdy+DNWVSQOI83i1bkN1nwez3b75N2x9A8g2uaZDaDmz3Kk5TZ0/+WSpO3AFDaWUMyyUD3fTErfsJl1eD1/ekThe9w4UTz4eexf6XTLlwCKWO+kdOLwAXjmwyMG6r5SPDkLn5y7N5mFy43v2XtPp/kZMDpEz23HRW12IOXA/zVPtWh8PVOeozT2Kh18qHzNFYJEDuVMwqKvcqDN74mb2SjmwyAGCLcz25R6f7QfemluLarbzTm2viI1ZEVjk6LKT26iDoBxY5Mm8YfLerol/l81c0LVpL38BVbx9BPF23f0LUM1N/VaqPjGTVnZzsx4Tsl/9GEw7jxWBRRYvW/IKXSwoBxZZsKyXbk7g+2m5A558YHY2e/eCW+kuxIrAIgsWYsHHQla//+a+aodcmzvoVeXAIst0z+TDN9oA5RyUdydmubnn8Na7ALcAuG7m/RqYewXfTXmyIrDIyXNHfaMasMiq3I/hty6bmXjAzVSYRw1Y5IR5YP55Zj7wRmfn5r8kIqtn5r5uPZfKV9+ZrYoisEijqQGLNJgasEiD/RaV7/pwkQpsegAAAABJRU5ErkJggg==;imageBorder=#E0E0E0;" vertex="1" parent="1">
          <mxGeometry x="450" y="653.13" width="60" height="33.75" as="geometry" />
        </mxCell>
        <mxCell id="_VsH6jPjc1Dl-bb9zUJQ-135" value="Compressed domain features" style="text;html=1;strokeColor=none;fillColor=none;align=center;verticalAlign=middle;whiteSpace=wrap;rounded=0;fontSize=12;fontFamily=Times New Roman;" vertex="1" parent="1">
          <mxGeometry x="347.01" y="785" width="85.97" height="20" as="geometry" />
        </mxCell>
        <mxCell id="_VsH6jPjc1Dl-bb9zUJQ-136" value="Feature images sequence" style="text;html=1;strokeColor=none;fillColor=none;align=center;verticalAlign=middle;whiteSpace=wrap;rounded=0;fontSize=12;fontFamily=Times New Roman;" vertex="1" parent="1">
          <mxGeometry x="450" y="785" width="80" height="20" as="geometry" />
        </mxCell>
        <mxCell id="_VsH6jPjc1Dl-bb9zUJQ-142" style="edgeStyle=orthogonalEdgeStyle;orthogonalLoop=1;jettySize=auto;html=1;exitX=0.5;exitY=0;exitDx=0;exitDy=0;entryX=0.5;entryY=0;entryDx=0;entryDy=0;endArrow=classicThin;endFill=1;fontFamily=Times New Roman;fontSize=12;fontColor=#000000;curved=1;strokeColor=#FF0000;labelBackgroundColor=none;" edge="1" parent="1" source="_VsH6jPjc1Dl-bb9zUJQ-137" target="_VsH6jPjc1Dl-bb9zUJQ-141">
          <mxGeometry relative="1" as="geometry">
            <Array as="points">
              <mxPoint x="490" y="640" />
              <mxPoint x="580" y="640" />
            </Array>
          </mxGeometry>
        </mxCell>
        <mxCell id="_VsH6jPjc1Dl-bb9zUJQ-137" value="" style="shape=image;verticalLabelPosition=bottom;labelBackgroundColor=none;verticalAlign=top;aspect=fixed;imageAspect=0;image=data:image/png,iVBORw0KGgoAAAANSUhEUgAAAUAAAAC0CAIAAABqhmJGAAAOtklEQVR4nO3dz48b533H8bei1Ipl0n1ix0GWAYpJDXAdGAjG3U2BBE3AAEEvjdvtrVIu6sXKUYDzBygIcosA3QKpQKFDYZ1aLCpfgvTAXNqiEItpURRYFmmfFDWFIj/8JKTixFHsHIbPPN9ZLq3VLsnd4X5eWCwfDh/OzEp8+J3vPM88cw6eJnkHEWmOD530DojI0akBizSYGrCIiIiIiIiIiIiIiIiIiIiIiIiIiIiIiKzUuZPegbND113L4ulqJJEGUwMWaTA1YBERERERERERERERERERERERERERERERERERERERERERERERERERERERERERERERERERERERERERERERERERERERERERERERERERERFZGXfSOyAiIiIiIiIiIiIiIiIip9q5pW+h9RJAp3zyFsAIgImtNF76boisow+d9A6IyNGtqAFnkK1mSyJnyYoacFADFlmCDy99C50vAg4COMY92C3z4eGbS9+0yLpbUQT24OAa7AKKxiILsvwG3Jn++A79Eb0RgF/6VkXOhBVF4B4ARQzF2Wq2KrLulp8Db+wBxQOAwNMBKK9o7b6Q6gzfM294uPRdElkXK4rADoIpe12VLrIIy2/AYxiXp6Cnsnp7FpEjO4EI3IN8NVsVWXfLz4EnnyeGX7d9HihaFMDw+6aSRnSKHMXqRmIRx2MVOgstsiDLj8BAPGYOZRueKAEWWYzVjcTKYxzOFIFFFmT5EXj0EHAd+sD4hx6yciTW0G5a1wOLHMWKDqGdOQtdrGaTImfAig6hixHZKD4Z4xRxRRZhdTlwiGWnURwiC3K4Q+jWx1N500xmNfi1qWTL1t+XDxkUe1+k6klqPeurKhONhRY5itWNoAj1gl/ZhkXW14k1YBE5vidrwNkxtuRiwR9jJSJiPcG80D0o6vEzb71SgOuUCy8CtHEQ9t7KYkN1PEpvmfyM6UKC+n5Fju0J+oH7M0sKAALkMcD2D0pxsziIsuJ0IC2yCIsYyDGiIN57ob3/xXBQW/UL2KqI6Do+ERERERERERERERERERERERERERERERFZrSe4HrhhWn+UypN/My/oOmRZH7oaSaTBVjSx++q5qwRwAwIHzUUgshbWOQK7+COyrtYrB+69TGyxO3xvF9gig+LWl1Kdyci8QfmwNNvaRuA+OMh1KyZZa+uVA29BnILLDab3Mc3Ab07DcgAGJ7BfIkuythG41IcQJ8EMyodl7TQzB7702fLRQRg+D7AB4IYuMJ0f091/OY+nn7PO//rqvcM3zIp0HyZptmZH4FAPqiEWMghm8tpMZ6RlTTUzB34AwAYOwsa0ZXpwHYB8hK/PHe/jCa3dVe6kyPI1OAK7WAjgzX2bAhCfuth0ieelRdZJMyPwhgPysk0OP0cVgfnnAFm5fPuVsq6DPt93EKYdwA3+zhLZp8Gf5j4Qb8sUYph1sePXxXhb/g6r2iuRVWpmBCblvX0A8g4eQhxYFcCPCOC6BGLOLLJ2GhmBc8jrp6B9jMAlF4dw7EBmbp4osmaaE4EvvVwV3YM3HYQRDlz7QQZ+TADG/0FcXmz/K1AM8ZC3c6junPhPK9xpaazWhVSevGde+PWc+i+bJz817w1m+TvH3699GhmBHYQYY/O4MK/XCRCgmJ7EEllPzYnAUQ6uNe062oEwJgd6BHBtgHCPAPkoDaLMYxt2OpslK9Ax5eFyN9W8CFyYso8/LobcUK+cxV5iF8siy5Cd0HabE4HvvQ+wDVBsXAjg2jgI4x+Reoy+HCDvUIAfXXUQOmRQjL5wAjssp4qdI433Tflp4HqZcF2/4CGU8bP9CaoBfK8/b+rnAK8DcPc7AK8B+NF/AWwCMP4dU/93U/HGUxAvQm+bfdgz5ckj897H58zNacCGN72+If5k5mkpM4O0gsKvGK7+ebheX54BsUI/vtSLZ1VOleY04G2I2W+Z62Zt+pCNCeCGBMi7AAF6QAcH2QYefBcH2YgAYck5iZxSndqzUJVeBdJV4uVyb2o64Mb0NEoGvDFdGJheAzd1fc627PJSOSJw+zH7e0jNy4GJncABMCOuMiB2DrtYM8A1cylStVxkHnfQJW6FKc+reSKacz1w6xmYfrf1th468MNpNHZAt7w2+Eo//pv2xndCPH4uxmMHO21uAoNPmJXqeuC11vqaefJcKr76NwCXAbg3Scv7T6dy56OpfP9nZvkLlNO8ALwNcXzBxkOI55yHb5t9MP3J9oB3+91Ufv3F8tFB2PhkWv51sw/9vzPr+VVVanAEvha7gl09pQnmx5vIHE7B96WsB7/kz5I79PqbkwMbN2EHfBsHOy0KCON0diEDD0U7De240uNm9WbNiXXWzMs2LwExDpfK7LQzU3N6Xtr8LgNGy9QZmppHPc8SZqZ/6sWO0nkaGYGBXSigMJE2xL/Tx38FFyvPLhH5YG6mYJ+6ePS3pE1XW/HgypOycywnArc+bZ58LBW3n4V47q49HV/qIIz/n+owuPN+Vn3lDJ6C6VyTDNrpvXwV6G/Qg/74LzNgTAZs/GEAP6QHfe642NuU8UwO2QAPtExeUetz+xXSIK3PmCdfIF03+hOI/bHtjDi1sBvdDsT4OQoQo+Vtcx5kK/W7htEz1Tpd58OhWv6V8y6Gjfz2H1TrcaMfBGIMb/0irXN7zjjqrXYq3/iftF1eBBiVzeHZANwAcBu38zjKEP7Bx/orPYR2JlN1sRBmCn6m8qwsZsLl7x3YBTczaU7PhOWgCLzWwpzlxRLWuW/N7hib2MfFje7bdJjTC73EBuw6BKb9bK5MTU3+GWxVe71u+b04IIBrpZrTXLfsAR5Pjy4C5OX1Rp3p/M89KNp4YDBtvUU8CAkjzYm1btxsG7t9cHla7fC34hiZlZefya/Utuggu5y6l9x9M15oEX28WTyELrflBxSQdWpTVoSlNuBgZsMI9a8rZ+pw0Pecm/m/2Y3LQ2y6mPUX5q/K4sKb0KvPZZfr4qT1Ek5o5c58pB0pnPC4I8cPkJsVYpqGM03Jx2jkY/kc2HGbc651PIzuV1PZnMfrjV8K1VDH8aMCsjJn6P67h6JdNrlJqPZ49GlSAzbjSLdeAsKAHNz4L4CdB9yEbO98D65fJQfXvQO4B3jIvv2eB3cVD1n/AnEAZjH+RwdFmatM/tr8AYu/VlMWzJ5b6Zgc8jWfyoOHEI/p7G2w7Pjn7oup/OZ/mvV/JJUnv0zlnvkc8oJZzydhGtWzzsW0Eze+a+qbNtX6PbM89S3vbH/KVxFuK4MYZPbMoenmxfIxgzD4M2KTXnoOHOpxODPpqAfiLFZ5fXBViG+h/g1U8jGQZvFIYweymAb71M+e3p6ZAVvVSyJH5uondPwxVrVbX20pzGyl5M2Mq36RDbgcI1VmrcM0pNF3UgePzUCq3fLAgILp2Wb3IP0NV2AXwlba3XyTANkWQNZnFxjTg3zATap5J82/Zn+6XQ9hhIdQ5ie172ZpIPs/aHtul93PH/uKQ7WkTWBhnyjXJ5BaSoghx9WbTB4XLj4CB3Pi92hvD7F8J14CEiCPFxVlQPyrsno/cMkdlIQE81vEndYPg585px1iwdnzZ/GQe3E5cGuzKrrec6HaXvudattu809disZfzqqdu/XfVF82V7+ZdnTQCeC6AHR+Wv0x+bf/r0h/lcur81KTH5sd0jjntdNyAFcBuGVy1MlvTCX7GT6fiq99NpXH34IYt0d/BTFuD/92znoss85LLpUf2MsKTL5duzbY7MPeD81yMwahc5Eq0eu8DfF8+KhVbSxs/jHQ6y0hAmcmhIaY2XqA6bXRmKQ0i9V8/TghxFUR6/v6V2YRl2PWL/JY7rQG3n18/WRNML9LLi5ZcAOebrI/fVrU96B/z9SMecsOuG08cJ8+1XwFH7T31Jf4mZdE9htC9ZnZmHl1K9VZutm+6NnR14/7VId46veEL2Zw9Q5ekTPOHaIhOHPEeg6eMS8pb5SG6JrrurdMDjk2ueubtm/f5Mnd34cYde0czndt/UPMBX0cpk/YbV8ITM9jO8ahemH4o1S/23VV2x79ObBzmdDcq5FE1lI49Mhqv+B+YJEmOgVzpIX7QMqEw0F13LRPJy0p3mBHDVikEYIpOyDerkA5sDRHy/apXkzFzlMQI9jY5MbtH6Ry3+axxxnvYObNmph5rWyOPU/XzI81PMz9lkzbNGOzs9ZvHOR3yZUDizSOj6lyX4fQ0kSOeP+EsyrAnSWNhRZZtlC/aNZy9WrrKgBwXTmwNNb5gxff26qK7vq7VM14bwxxroy+T/V75hrgvhlfbXPa2r2CHx1cZ96+de1c0x2orlv6VFo++hez/p+n8tZTqTz+SHrv5G3iWA7lwLK2Qn3mlnVyJ46X1iG0rK+96WOIC9zqj6u7ptwH4lHAvOuZ5/VLmzmrrw25AsA1RWA5U8JaROObAFyDQjmwLI29J9ApnnP71vMAdwEYXYA4RvruT0ylw/TZHiJPvvQnqdy+DNWVSQOI83i1bkN1nwez3b75N2x9A8g2uaZDaDmz3Kk5TZ0/+WSpO3AFDaWUMyyUD3fTErfsJl1eD1/ekThe9w4UTz4eexf6XTLlwCKWO+kdOLwAXjmwyMG6r5SPDkLn5y7N5mFy43v2XtPp/kZMDpEz23HRW12IOXA/zVPtWh8PVOeozT2Kh18qHzNFYJEDuVMwqKvcqDN74mb2SjmwyAGCLcz25R6f7QfemluLarbzTm2viI1ZEVjk6LKT26iDoBxY5Mm8YfLerol/l81c0LVpL38BVbx9BPF23f0LUM1N/VaqPjGTVnZzsx4Tsl/9GEw7jxWBRRYvW/IKXSwoBxZZsKyXbk7g+2m5A558YHY2e/eCW+kuxIrAIgsWYsHHQla//+a+aodcmzvoVeXAIst0z+TDN9oA5RyUdydmubnn8Na7ALcAuG7m/RqYewXfTXmyIrDIyXNHfaMasMiq3I/hty6bmXjAzVSYRw1Y5IR5YP55Zj7wRmfn5r8kIqtn5r5uPZfKV9+ZrYoisEijqQGLNJgasEiD/RaV7/pwkQpsegAAAABJRU5ErkJggg==;imageBorder=#E0E0E0;" vertex="1" parent="1">
          <mxGeometry x="460" y="663.13" width="60" height="33.75" as="geometry" />
        </mxCell>
        <mxCell id="_VsH6jPjc1Dl-bb9zUJQ-138" value="" style="shape=image;verticalLabelPosition=bottom;labelBackgroundColor=none;verticalAlign=top;aspect=fixed;imageAspect=0;image=data:image/png,iVBORw0KGgoAAAANSUhEUgAAAUAAAAC0CAIAAABqhmJGAAAOtklEQVR4nO3dz48b533H8bei1Ipl0n1ix0GWAYpJDXAdGAjG3U2BBE3AAEEvjdvtrVIu6sXKUYDzBygIcosA3QKpQKFDYZ1aLCpfgvTAXNqiEItpURRYFmmfFDWFIj/8JKTixFHsHIbPPN9ZLq3VLsnd4X5eWCwfDh/OzEp8+J3vPM88cw6eJnkHEWmOD530DojI0akBizSYGrCIiIiIiIiIiIiIiIiIiIiIiIiIiIiIiKzUuZPegbND113L4ulqJJEGUwMWaTA1YBERERERERERERERERERERERERERERERERERERERERERERERERERERERERERERERERERERERERERERERERERERERERERERERERERERFZGXfSOyAiIiIiIiIiIiIiIiIip9q5pW+h9RJAp3zyFsAIgImtNF76boisow+d9A6IyNGtqAFnkK1mSyJnyYoacFADFlmCDy99C50vAg4COMY92C3z4eGbS9+0yLpbUQT24OAa7AKKxiILsvwG3Jn++A79Eb0RgF/6VkXOhBVF4B4ARQzF2Wq2KrLulp8Db+wBxQOAwNMBKK9o7b6Q6gzfM294uPRdElkXK4rADoIpe12VLrIIy2/AYxiXp6Cnsnp7FpEjO4EI3IN8NVsVWXfLz4EnnyeGX7d9HihaFMDw+6aSRnSKHMXqRmIRx2MVOgstsiDLj8BAPGYOZRueKAEWWYzVjcTKYxzOFIFFFmT5EXj0EHAd+sD4hx6yciTW0G5a1wOLHMWKDqGdOQtdrGaTImfAig6hixHZKD4Z4xRxRRZhdTlwiGWnURwiC3K4Q+jWx1N500xmNfi1qWTL1t+XDxkUe1+k6klqPeurKhONhRY5itWNoAj1gl/ZhkXW14k1YBE5vidrwNkxtuRiwR9jJSJiPcG80D0o6vEzb71SgOuUCy8CtHEQ9t7KYkN1PEpvmfyM6UKC+n5Fju0J+oH7M0sKAALkMcD2D0pxsziIsuJ0IC2yCIsYyDGiIN57ob3/xXBQW/UL2KqI6Do+ERERERERERERERERERERERERERERERFZrSe4HrhhWn+UypN/My/oOmRZH7oaSaTBVjSx++q5qwRwAwIHzUUgshbWOQK7+COyrtYrB+69TGyxO3xvF9gig+LWl1Kdyci8QfmwNNvaRuA+OMh1KyZZa+uVA29BnILLDab3Mc3Ab07DcgAGJ7BfIkuythG41IcQJ8EMyodl7TQzB7702fLRQRg+D7AB4IYuMJ0f091/OY+nn7PO//rqvcM3zIp0HyZptmZH4FAPqiEWMghm8tpMZ6RlTTUzB34AwAYOwsa0ZXpwHYB8hK/PHe/jCa3dVe6kyPI1OAK7WAjgzX2bAhCfuth0ieelRdZJMyPwhgPysk0OP0cVgfnnAFm5fPuVsq6DPt93EKYdwA3+zhLZp8Gf5j4Qb8sUYph1sePXxXhb/g6r2iuRVWpmBCblvX0A8g4eQhxYFcCPCOC6BGLOLLJ2GhmBc8jrp6B9jMAlF4dw7EBmbp4osmaaE4EvvVwV3YM3HYQRDlz7QQZ+TADG/0FcXmz/K1AM8ZC3c6junPhPK9xpaazWhVSevGde+PWc+i+bJz817w1m+TvH3699GhmBHYQYY/O4MK/XCRCgmJ7EEllPzYnAUQ6uNe062oEwJgd6BHBtgHCPAPkoDaLMYxt2OpslK9Ax5eFyN9W8CFyYso8/LobcUK+cxV5iF8siy5Cd0HabE4HvvQ+wDVBsXAjg2jgI4x+Reoy+HCDvUIAfXXUQOmRQjL5wAjssp4qdI433Tflp4HqZcF2/4CGU8bP9CaoBfK8/b+rnAK8DcPc7AK8B+NF/AWwCMP4dU/93U/HGUxAvQm+bfdgz5ckj897H58zNacCGN72+If5k5mkpM4O0gsKvGK7+ebheX54BsUI/vtSLZ1VOleY04G2I2W+Z62Zt+pCNCeCGBMi7AAF6QAcH2QYefBcH2YgAYck5iZxSndqzUJVeBdJV4uVyb2o64Mb0NEoGvDFdGJheAzd1fc627PJSOSJw+zH7e0jNy4GJncABMCOuMiB2DrtYM8A1cylStVxkHnfQJW6FKc+reSKacz1w6xmYfrf1th468MNpNHZAt7w2+Eo//pv2xndCPH4uxmMHO21uAoNPmJXqeuC11vqaefJcKr76NwCXAbg3Scv7T6dy56OpfP9nZvkLlNO8ALwNcXzBxkOI55yHb5t9MP3J9oB3+91Ufv3F8tFB2PhkWv51sw/9vzPr+VVVanAEvha7gl09pQnmx5vIHE7B96WsB7/kz5I79PqbkwMbN2EHfBsHOy0KCON0diEDD0U7De240uNm9WbNiXXWzMs2LwExDpfK7LQzU3N6Xtr8LgNGy9QZmppHPc8SZqZ/6sWO0nkaGYGBXSigMJE2xL/Tx38FFyvPLhH5YG6mYJ+6ePS3pE1XW/HgypOycywnArc+bZ58LBW3n4V47q49HV/qIIz/n+owuPN+Vn3lDJ6C6VyTDNrpvXwV6G/Qg/74LzNgTAZs/GEAP6QHfe642NuU8UwO2QAPtExeUetz+xXSIK3PmCdfIF03+hOI/bHtjDi1sBvdDsT4OQoQo+Vtcx5kK/W7htEz1Tpd58OhWv6V8y6Gjfz2H1TrcaMfBGIMb/0irXN7zjjqrXYq3/iftF1eBBiVzeHZANwAcBu38zjKEP7Bx/orPYR2JlN1sRBmCn6m8qwsZsLl7x3YBTczaU7PhOWgCLzWwpzlxRLWuW/N7hib2MfFje7bdJjTC73EBuw6BKb9bK5MTU3+GWxVe71u+b04IIBrpZrTXLfsAR5Pjy4C5OX1Rp3p/M89KNp4YDBtvUU8CAkjzYm1btxsG7t9cHla7fC34hiZlZefya/Utuggu5y6l9x9M15oEX28WTyELrflBxSQdWpTVoSlNuBgZsMI9a8rZ+pw0Pecm/m/2Y3LQ2y6mPUX5q/K4sKb0KvPZZfr4qT1Ek5o5c58pB0pnPC4I8cPkJsVYpqGM03Jx2jkY/kc2HGbc651PIzuV1PZnMfrjV8K1VDH8aMCsjJn6P67h6JdNrlJqPZ49GlSAzbjSLdeAsKAHNz4L4CdB9yEbO98D65fJQfXvQO4B3jIvv2eB3cVD1n/AnEAZjH+RwdFmatM/tr8AYu/VlMWzJ5b6Zgc8jWfyoOHEI/p7G2w7Pjn7oup/OZ/mvV/JJUnv0zlnvkc8oJZzydhGtWzzsW0Eze+a+qbNtX6PbM89S3vbH/KVxFuK4MYZPbMoenmxfIxgzD4M2KTXnoOHOpxODPpqAfiLFZ5fXBViG+h/g1U8jGQZvFIYweymAb71M+e3p6ZAVvVSyJH5uondPwxVrVbX20pzGyl5M2Mq36RDbgcI1VmrcM0pNF3UgePzUCq3fLAgILp2Wb3IP0NV2AXwlba3XyTANkWQNZnFxjTg3zATap5J82/Zn+6XQ9hhIdQ5ie172ZpIPs/aHtul93PH/uKQ7WkTWBhnyjXJ5BaSoghx9WbTB4XLj4CB3Pi92hvD7F8J14CEiCPFxVlQPyrsno/cMkdlIQE81vEndYPg585px1iwdnzZ/GQe3E5cGuzKrrec6HaXvudattu809disZfzqqdu/XfVF82V7+ZdnTQCeC6AHR+Wv0x+bf/r0h/lcur81KTH5sd0jjntdNyAFcBuGVy1MlvTCX7GT6fiq99NpXH34IYt0d/BTFuD/92znoss85LLpUf2MsKTL5duzbY7MPeD81yMwahc5Eq0eu8DfF8+KhVbSxs/jHQ6y0hAmcmhIaY2XqA6bXRmKQ0i9V8/TghxFUR6/v6V2YRl2PWL/JY7rQG3n18/WRNML9LLi5ZcAOebrI/fVrU96B/z9SMecsOuG08cJ8+1XwFH7T31Jf4mZdE9htC9ZnZmHl1K9VZutm+6NnR14/7VId46veEL2Zw9Q5ekTPOHaIhOHPEeg6eMS8pb5SG6JrrurdMDjk2ueubtm/f5Mnd34cYde0czndt/UPMBX0cpk/YbV8ITM9jO8ahemH4o1S/23VV2x79ObBzmdDcq5FE1lI49Mhqv+B+YJEmOgVzpIX7QMqEw0F13LRPJy0p3mBHDVikEYIpOyDerkA5sDRHy/apXkzFzlMQI9jY5MbtH6Ry3+axxxnvYObNmph5rWyOPU/XzI81PMz9lkzbNGOzs9ZvHOR3yZUDizSOj6lyX4fQ0kSOeP+EsyrAnSWNhRZZtlC/aNZy9WrrKgBwXTmwNNb5gxff26qK7vq7VM14bwxxroy+T/V75hrgvhlfbXPa2r2CHx1cZ96+de1c0x2orlv6VFo++hez/p+n8tZTqTz+SHrv5G3iWA7lwLK2Qn3mlnVyJ46X1iG0rK+96WOIC9zqj6u7ptwH4lHAvOuZ5/VLmzmrrw25AsA1RWA5U8JaROObAFyDQjmwLI29J9ApnnP71vMAdwEYXYA4RvruT0ylw/TZHiJPvvQnqdy+DNWVSQOI83i1bkN1nwez3b75N2x9A8g2uaZDaDmz3Kk5TZ0/+WSpO3AFDaWUMyyUD3fTErfsJl1eD1/ekThe9w4UTz4eexf6XTLlwCKWO+kdOLwAXjmwyMG6r5SPDkLn5y7N5mFy43v2XtPp/kZMDpEz23HRW12IOXA/zVPtWh8PVOeozT2Kh18qHzNFYJEDuVMwqKvcqDN74mb2SjmwyAGCLcz25R6f7QfemluLarbzTm2viI1ZEVjk6LKT26iDoBxY5Mm8YfLerol/l81c0LVpL38BVbx9BPF23f0LUM1N/VaqPjGTVnZzsx4Tsl/9GEw7jxWBRRYvW/IKXSwoBxZZsKyXbk7g+2m5A558YHY2e/eCW+kuxIrAIgsWYsHHQla//+a+aodcmzvoVeXAIst0z+TDN9oA5RyUdydmubnn8Na7ALcAuG7m/RqYewXfTXmyIrDIyXNHfaMasMiq3I/hty6bmXjAzVSYRw1Y5IR5YP55Zj7wRmfn5r8kIqtn5r5uPZfKV9+ZrYoisEijqQGLNJgasEiD/RaV7/pwkQpsegAAAABJRU5ErkJggg==;imageBorder=#E0E0E0;" vertex="1" parent="1">
          <mxGeometry x="470" y="673.13" width="60" height="33.75" as="geometry" />
        </mxCell>
        <mxCell id="_VsH6jPjc1Dl-bb9zUJQ-139" value="..." style="text;html=1;strokeColor=none;fillColor=none;align=center;verticalAlign=middle;whiteSpace=wrap;rounded=0;fontFamily=Times New Roman;fontSize=12;fontColor=#000000;rotation=45;labelBackgroundColor=none;" vertex="1" parent="1">
          <mxGeometry x="350" y="570" width="40" height="20" as="geometry" />
        </mxCell>
        <mxCell id="_VsH6jPjc1Dl-bb9zUJQ-145" style="edgeStyle=orthogonalEdgeStyle;curved=1;orthogonalLoop=1;jettySize=auto;html=1;exitX=1;exitY=0.5;exitDx=0;exitDy=0;endArrow=classicThin;endFill=1;strokeColor=#FF0000;fontFamily=Times New Roman;fontSize=12;fontColor=#000000;entryX=0.5;entryY=1;entryDx=0;entryDy=0;labelBackgroundColor=none;" edge="1" parent="1" source="_VsH6jPjc1Dl-bb9zUJQ-141" target="_VsH6jPjc1Dl-bb9zUJQ-146">
          <mxGeometry relative="1" as="geometry">
            <mxPoint x="630" y="680" as="targetPoint" />
          </mxGeometry>
        </mxCell>
        <mxCell id="_VsH6jPjc1Dl-bb9zUJQ-141" value="" style="shape=image;verticalLabelPosition=bottom;labelBackgroundColor=none;verticalAlign=top;aspect=fixed;imageAspect=0;image=data:image/png,iVBORw0KGgoAAAANSUhEUgAAAUAAAAC0CAIAAABqhmJGAAAOtklEQVR4nO3dz48b533H8bei1Ipl0n1ix0GWAYpJDXAdGAjG3U2BBE3AAEEvjdvtrVIu6sXKUYDzBygIcosA3QKpQKFDYZ1aLCpfgvTAXNqiEItpURRYFmmfFDWFIj/8JKTixFHsHIbPPN9ZLq3VLsnd4X5eWCwfDh/OzEp8+J3vPM88cw6eJnkHEWmOD530DojI0akBizSYGrCIiIiIiIiIiIiIiIiIiIiIiIiIiIiIiKzUuZPegbND113L4ulqJJEGUwMWaTA1YBERERERERERERERERERERERERERERERERERERERERERERERERERERERERERERERERERERERERERERERERERERERERERERERERERERFZGXfSOyAiIiIiIiIiIiIiIiIip9q5pW+h9RJAp3zyFsAIgImtNF76boisow+d9A6IyNGtqAFnkK1mSyJnyYoacFADFlmCDy99C50vAg4COMY92C3z4eGbS9+0yLpbUQT24OAa7AKKxiILsvwG3Jn++A79Eb0RgF/6VkXOhBVF4B4ARQzF2Wq2KrLulp8Db+wBxQOAwNMBKK9o7b6Q6gzfM294uPRdElkXK4rADoIpe12VLrIIy2/AYxiXp6Cnsnp7FpEjO4EI3IN8NVsVWXfLz4EnnyeGX7d9HihaFMDw+6aSRnSKHMXqRmIRx2MVOgstsiDLj8BAPGYOZRueKAEWWYzVjcTKYxzOFIFFFmT5EXj0EHAd+sD4hx6yciTW0G5a1wOLHMWKDqGdOQtdrGaTImfAig6hixHZKD4Z4xRxRRZhdTlwiGWnURwiC3K4Q+jWx1N500xmNfi1qWTL1t+XDxkUe1+k6klqPeurKhONhRY5itWNoAj1gl/ZhkXW14k1YBE5vidrwNkxtuRiwR9jJSJiPcG80D0o6vEzb71SgOuUCy8CtHEQ9t7KYkN1PEpvmfyM6UKC+n5Fju0J+oH7M0sKAALkMcD2D0pxsziIsuJ0IC2yCIsYyDGiIN57ob3/xXBQW/UL2KqI6Do+ERERERERERERERERERERERERERERERFZrSe4HrhhWn+UypN/My/oOmRZH7oaSaTBVjSx++q5qwRwAwIHzUUgshbWOQK7+COyrtYrB+69TGyxO3xvF9gig+LWl1Kdyci8QfmwNNvaRuA+OMh1KyZZa+uVA29BnILLDab3Mc3Ab07DcgAGJ7BfIkuythG41IcQJ8EMyodl7TQzB7702fLRQRg+D7AB4IYuMJ0f091/OY+nn7PO//rqvcM3zIp0HyZptmZH4FAPqiEWMghm8tpMZ6RlTTUzB34AwAYOwsa0ZXpwHYB8hK/PHe/jCa3dVe6kyPI1OAK7WAjgzX2bAhCfuth0ieelRdZJMyPwhgPysk0OP0cVgfnnAFm5fPuVsq6DPt93EKYdwA3+zhLZp8Gf5j4Qb8sUYph1sePXxXhb/g6r2iuRVWpmBCblvX0A8g4eQhxYFcCPCOC6BGLOLLJ2GhmBc8jrp6B9jMAlF4dw7EBmbp4osmaaE4EvvVwV3YM3HYQRDlz7QQZ+TADG/0FcXmz/K1AM8ZC3c6junPhPK9xpaazWhVSevGde+PWc+i+bJz817w1m+TvH3699GhmBHYQYY/O4MK/XCRCgmJ7EEllPzYnAUQ6uNe062oEwJgd6BHBtgHCPAPkoDaLMYxt2OpslK9Ax5eFyN9W8CFyYso8/LobcUK+cxV5iF8siy5Cd0HabE4HvvQ+wDVBsXAjg2jgI4x+Reoy+HCDvUIAfXXUQOmRQjL5wAjssp4qdI433Tflp4HqZcF2/4CGU8bP9CaoBfK8/b+rnAK8DcPc7AK8B+NF/AWwCMP4dU/93U/HGUxAvQm+bfdgz5ckj897H58zNacCGN72+If5k5mkpM4O0gsKvGK7+ebheX54BsUI/vtSLZ1VOleY04G2I2W+Z62Zt+pCNCeCGBMi7AAF6QAcH2QYefBcH2YgAYck5iZxSndqzUJVeBdJV4uVyb2o64Mb0NEoGvDFdGJheAzd1fc627PJSOSJw+zH7e0jNy4GJncABMCOuMiB2DrtYM8A1cylStVxkHnfQJW6FKc+reSKacz1w6xmYfrf1th468MNpNHZAt7w2+Eo//pv2xndCPH4uxmMHO21uAoNPmJXqeuC11vqaefJcKr76NwCXAbg3Scv7T6dy56OpfP9nZvkLlNO8ALwNcXzBxkOI55yHb5t9MP3J9oB3+91Ufv3F8tFB2PhkWv51sw/9vzPr+VVVanAEvha7gl09pQnmx5vIHE7B96WsB7/kz5I79PqbkwMbN2EHfBsHOy0KCON0diEDD0U7De240uNm9WbNiXXWzMs2LwExDpfK7LQzU3N6Xtr8LgNGy9QZmppHPc8SZqZ/6sWO0nkaGYGBXSigMJE2xL/Tx38FFyvPLhH5YG6mYJ+6ePS3pE1XW/HgypOycywnArc+bZ58LBW3n4V47q49HV/qIIz/n+owuPN+Vn3lDJ6C6VyTDNrpvXwV6G/Qg/74LzNgTAZs/GEAP6QHfe642NuU8UwO2QAPtExeUetz+xXSIK3PmCdfIF03+hOI/bHtjDi1sBvdDsT4OQoQo+Vtcx5kK/W7htEz1Tpd58OhWv6V8y6Gjfz2H1TrcaMfBGIMb/0irXN7zjjqrXYq3/iftF1eBBiVzeHZANwAcBu38zjKEP7Bx/orPYR2JlN1sRBmCn6m8qwsZsLl7x3YBTczaU7PhOWgCLzWwpzlxRLWuW/N7hib2MfFje7bdJjTC73EBuw6BKb9bK5MTU3+GWxVe71u+b04IIBrpZrTXLfsAR5Pjy4C5OX1Rp3p/M89KNp4YDBtvUU8CAkjzYm1btxsG7t9cHla7fC34hiZlZefya/Utuggu5y6l9x9M15oEX28WTyELrflBxSQdWpTVoSlNuBgZsMI9a8rZ+pw0Pecm/m/2Y3LQ2y6mPUX5q/K4sKb0KvPZZfr4qT1Ek5o5c58pB0pnPC4I8cPkJsVYpqGM03Jx2jkY/kc2HGbc651PIzuV1PZnMfrjV8K1VDH8aMCsjJn6P67h6JdNrlJqPZ49GlSAzbjSLdeAsKAHNz4L4CdB9yEbO98D65fJQfXvQO4B3jIvv2eB3cVD1n/AnEAZjH+RwdFmatM/tr8AYu/VlMWzJ5b6Zgc8jWfyoOHEI/p7G2w7Pjn7oup/OZ/mvV/JJUnv0zlnvkc8oJZzydhGtWzzsW0Eze+a+qbNtX6PbM89S3vbH/KVxFuK4MYZPbMoenmxfIxgzD4M2KTXnoOHOpxODPpqAfiLFZ5fXBViG+h/g1U8jGQZvFIYweymAb71M+e3p6ZAVvVSyJH5uondPwxVrVbX20pzGyl5M2Mq36RDbgcI1VmrcM0pNF3UgePzUCq3fLAgILp2Wb3IP0NV2AXwlba3XyTANkWQNZnFxjTg3zATap5J82/Zn+6XQ9hhIdQ5ie172ZpIPs/aHtul93PH/uKQ7WkTWBhnyjXJ5BaSoghx9WbTB4XLj4CB3Pi92hvD7F8J14CEiCPFxVlQPyrsno/cMkdlIQE81vEndYPg585px1iwdnzZ/GQe3E5cGuzKrrec6HaXvudattu809disZfzqqdu/XfVF82V7+ZdnTQCeC6AHR+Wv0x+bf/r0h/lcur81KTH5sd0jjntdNyAFcBuGVy1MlvTCX7GT6fiq99NpXH34IYt0d/BTFuD/92znoss85LLpUf2MsKTL5duzbY7MPeD81yMwahc5Eq0eu8DfF8+KhVbSxs/jHQ6y0hAmcmhIaY2XqA6bXRmKQ0i9V8/TghxFUR6/v6V2YRl2PWL/JY7rQG3n18/WRNML9LLi5ZcAOebrI/fVrU96B/z9SMecsOuG08cJ8+1XwFH7T31Jf4mZdE9htC9ZnZmHl1K9VZutm+6NnR14/7VId46veEL2Zw9Q5ekTPOHaIhOHPEeg6eMS8pb5SG6JrrurdMDjk2ueubtm/f5Mnd34cYde0czndt/UPMBX0cpk/YbV8ITM9jO8ahemH4o1S/23VV2x79ObBzmdDcq5FE1lI49Mhqv+B+YJEmOgVzpIX7QMqEw0F13LRPJy0p3mBHDVikEYIpOyDerkA5sDRHy/apXkzFzlMQI9jY5MbtH6Ry3+axxxnvYObNmph5rWyOPU/XzI81PMz9lkzbNGOzs9ZvHOR3yZUDizSOj6lyX4fQ0kSOeP+EsyrAnSWNhRZZtlC/aNZy9WrrKgBwXTmwNNb5gxff26qK7vq7VM14bwxxroy+T/V75hrgvhlfbXPa2r2CHx1cZ96+de1c0x2orlv6VFo++hez/p+n8tZTqTz+SHrv5G3iWA7lwLK2Qn3mlnVyJ46X1iG0rK+96WOIC9zqj6u7ptwH4lHAvOuZ5/VLmzmrrw25AsA1RWA5U8JaROObAFyDQjmwLI29J9ApnnP71vMAdwEYXYA4RvruT0ylw/TZHiJPvvQnqdy+DNWVSQOI83i1bkN1nwez3b75N2x9A8g2uaZDaDmz3Kk5TZ0/+WSpO3AFDaWUMyyUD3fTErfsJl1eD1/ekThe9w4UTz4eexf6XTLlwCKWO+kdOLwAXjmwyMG6r5SPDkLn5y7N5mFy43v2XtPp/kZMDpEz23HRW12IOXA/zVPtWh8PVOeozT2Kh18qHzNFYJEDuVMwqKvcqDN74mb2SjmwyAGCLcz25R6f7QfemluLarbzTm2viI1ZEVjk6LKT26iDoBxY5Mm8YfLerol/l81c0LVpL38BVbx9BPF23f0LUM1N/VaqPjGTVnZzsx4Tsl/9GEw7jxWBRRYvW/IKXSwoBxZZsKyXbk7g+2m5A558YHY2e/eCW+kuxIrAIgsWYsHHQla//+a+aodcmzvoVeXAIst0z+TDN9oA5RyUdydmubnn8Na7ALcAuG7m/RqYewXfTXmyIrDIyXNHfaMasMiq3I/hty6bmXjAzVSYRw1Y5IR5YP55Zj7wRmfn5r8kIqtn5r5uPZfKV9+ZrYoisEijqQGLNJgasEiD/RaV7/pwkQpsegAAAABJRU5ErkJggg==;" vertex="1" parent="1">
          <mxGeometry x="550" y="663.13" width="60" height="33.75" as="geometry" />
        </mxCell>
        <mxCell id="_VsH6jPjc1Dl-bb9zUJQ-150" style="edgeStyle=orthogonalEdgeStyle;curved=1;orthogonalLoop=1;jettySize=auto;html=1;exitX=0.5;exitY=0;exitDx=0;exitDy=0;entryX=0;entryY=0.5;entryDx=0;entryDy=0;endArrow=classicThin;endFill=1;strokeColor=#FF0000;fontFamily=Times New Roman;fontSize=12;fontColor=#000000;labelBackgroundColor=none;" edge="1" parent="1" source="_VsH6jPjc1Dl-bb9zUJQ-146" target="_VsH6jPjc1Dl-bb9zUJQ-148">
          <mxGeometry relative="1" as="geometry" />
        </mxCell>
        <mxCell id="_VsH6jPjc1Dl-bb9zUJQ-146" value="" style="shape=trapezoid;perimeter=trapezoidPerimeter;whiteSpace=wrap;html=1;fixedSize=1;strokeColor=#b46504;strokeWidth=1;fillColor=#fad7ac;fontFamily=Times New Roman;fontSize=12;rotation=90;size=13.75;labelBackgroundColor=none;" vertex="1" parent="1">
          <mxGeometry x="626" y="650" width="67.5" height="60" as="geometry" />
        </mxCell>
        <mxCell id="_VsH6jPjc1Dl-bb9zUJQ-147" value="New&lt;br&gt;backbone" style="text;html=1;strokeColor=none;fillColor=none;align=center;verticalAlign=middle;whiteSpace=wrap;rounded=0;fontFamily=Times New Roman;fontSize=12;fontColor=#000000;labelBackgroundColor=none;" vertex="1" parent="1">
          <mxGeometry x="639.75" y="670" width="40" height="20" as="geometry" />
        </mxCell>
        <mxCell id="_VsH6jPjc1Dl-bb9zUJQ-160" style="edgeStyle=orthogonalEdgeStyle;rounded=0;orthogonalLoop=1;jettySize=auto;html=1;exitX=1;exitY=0.5;exitDx=0;exitDy=0;entryX=0;entryY=0.5;entryDx=0;entryDy=0;endArrow=classicThin;endFill=1;strokeColor=#FF0000;fontFamily=Times New Roman;fontSize=12;fontColor=#000000;labelBackgroundColor=none;" edge="1" parent="1" source="_VsH6jPjc1Dl-bb9zUJQ-148" target="_VsH6jPjc1Dl-bb9zUJQ-158">
          <mxGeometry relative="1" as="geometry">
            <Array as="points">
              <mxPoint x="780" y="680" />
              <mxPoint x="780" y="660" />
            </Array>
          </mxGeometry>
        </mxCell>
        <mxCell id="_VsH6jPjc1Dl-bb9zUJQ-161" style="edgeStyle=orthogonalEdgeStyle;rounded=0;orthogonalLoop=1;jettySize=auto;html=1;exitX=1;exitY=0.5;exitDx=0;exitDy=0;entryX=0;entryY=0.5;entryDx=0;entryDy=0;endArrow=classicThin;endFill=1;strokeColor=#FF0000;fontFamily=Times New Roman;fontSize=12;fontColor=#000000;labelBackgroundColor=none;" edge="1" parent="1" source="_VsH6jPjc1Dl-bb9zUJQ-148" target="_VsH6jPjc1Dl-bb9zUJQ-159">
          <mxGeometry relative="1" as="geometry">
            <Array as="points">
              <mxPoint x="780" y="680" />
              <mxPoint x="780" y="700" />
            </Array>
          </mxGeometry>
        </mxCell>
        <mxCell id="_VsH6jPjc1Dl-bb9zUJQ-148" value="Object detection" style="rounded=0;whiteSpace=wrap;html=1;strokeColor=#0e8088;strokeWidth=1;fillColor=#b0e3e6;fontFamily=Times New Roman;fontSize=12;labelBackgroundColor=none;" vertex="1" parent="1">
          <mxGeometry x="710" y="660" width="60" height="40" as="geometry" />
        </mxCell>
        <mxCell id="_VsH6jPjc1Dl-bb9zUJQ-158" value="Class" style="rounded=0;whiteSpace=wrap;html=1;strokeColor=#6D1F00;strokeWidth=1;fillColor=#a0522d;fontFamily=Times New Roman;fontSize=12;fontColor=#ffffff;labelBackgroundColor=none;" vertex="1" parent="1">
          <mxGeometry x="800" y="650" width="40" height="20" as="geometry" />
        </mxCell>
        <mxCell id="_VsH6jPjc1Dl-bb9zUJQ-159" value="Box" style="rounded=0;whiteSpace=wrap;html=1;strokeColor=#3A5431;strokeWidth=1;fillColor=#6d8764;fontFamily=Times New Roman;fontSize=12;fontColor=#ffffff;labelBackgroundColor=none;" vertex="1" parent="1">
          <mxGeometry x="800" y="690" width="40" height="20" as="geometry" />
        </mxCell>
        <mxCell id="_VsH6jPjc1Dl-bb9zUJQ-164" value="Plaintext domain object detection model" style="text;html=1;strokeColor=none;fillColor=none;align=center;verticalAlign=middle;whiteSpace=wrap;rounded=0;fontSize=12;fontFamily=Times New Roman;" vertex="1" parent="1">
          <mxGeometry x="637.5" y="785" width="115" height="20" as="geometry" />
        </mxCell>
      </root>
    </mxGraphModel>
  </diagram>
</mxfile>
